<svg width="68" height="14" viewBox="0 0 68 14" fill="none" xmlns="http://www.w3.org/2000/svg">
<g clip-path="url(#clip0_10_1588)">
<path d="M21.2318 2.53035C20.982 1.73084 20.2482 1.10255 19.3146 0.888531C17.6242 0.500244 10.8425 0.500244 10.8425 0.500244C10.8425 0.500244 4.06088 0.500244 2.37038 0.888531C1.43677 1.10255 0.703089 1.73084 0.453174 2.53035C-0.000244005 3.97801 -0.000244141 7.00023 -0.000244141 7.00023C-0.000244141 7.00023 -0.000244005 10.0225 0.453174 11.4701C0.703089 12.2696 1.43677 12.8979 2.37038 13.1119C4.06088 13.5002 10.8425 13.5002 10.8425 13.5002C10.8425 13.5002 17.6242 13.5002 19.3146 13.1119C20.2482 12.8979 20.982 12.2696 21.2318 11.4701C21.6853 10.0225 21.6853 7.00023 21.6853 7.00023C21.6853 7.00023 21.6835 3.97801 21.2318 2.53035Z" fill="#FF0000"/>
<path d="M8.67358 9.78562L14.3074 7.00038L8.67358 4.21509V9.78562Z" fill="#F7F7F7"/>
<path d="M26.263 8.95245L23.8281 1.42212H25.9524L26.8057 4.83568C27.0235 5.67646 27.1823 6.39341 27.2859 6.98654H27.3483C27.4198 6.56157 27.5805 5.8492 27.8286 4.84791L28.7122 1.42212H30.8365L28.3712 8.95245V12.5647H26.2613V8.95245H26.263Z" fill="#F7F7F7"/>
<path d="M31.4761 12.3259C31.0477 12.0783 30.7424 11.693 30.5603 11.1702C30.3801 10.6474 30.2891 9.95342 30.2891 9.08509V7.90339C30.2891 7.02745 30.3926 6.32275 30.5997 5.7923C30.8067 5.26185 31.1298 4.87356 31.5689 4.63049C32.0081 4.38743 32.5847 4.26514 33.2988 4.26514C34.0021 4.26514 34.5644 4.38896 34.9892 4.63661C35.4123 4.88425 35.7229 5.27254 35.9192 5.79841C36.1156 6.32581 36.2138 7.02745 36.2138 7.90339V9.08509C36.2138 9.95342 36.1174 10.6505 35.9264 11.1763C35.7354 11.7037 35.4248 12.089 34.9963 12.332C34.5679 12.5751 33.986 12.6974 33.2523 12.6974C32.4954 12.6989 31.9046 12.5736 31.4761 12.3259ZM33.8789 11.051C33.9967 10.785 34.0574 10.3524 34.0574 9.7501V7.214C34.0574 6.63002 33.9985 6.20198 33.8789 5.93294C33.7593 5.66236 33.5505 5.52784 33.2505 5.52784C32.9614 5.52784 32.7561 5.66236 32.6383 5.93294C32.5186 6.20352 32.4597 6.63002 32.4597 7.214V9.7501C32.4597 10.3524 32.5168 10.7865 32.6311 11.051C32.7454 11.317 32.9506 11.45 33.2505 11.45C33.5505 11.45 33.7593 11.317 33.8789 11.051Z" fill="#F7F7F7"/>
<path d="M43.124 12.5662H41.4496L41.264 11.5695H41.2176C40.7623 12.3216 40.0804 12.6976 39.17 12.6976C38.5399 12.6976 38.074 12.5203 37.7741 12.1672C37.4742 11.8125 37.3242 11.2592 37.3242 10.5071V4.42438H39.4646V10.4C39.4646 10.7639 39.511 11.0222 39.6038 11.1766C39.6966 11.331 39.8519 11.4089 40.0697 11.4089C40.2554 11.4089 40.4339 11.3601 40.6053 11.2622C40.7767 11.1643 40.9016 11.0405 40.9855 10.8908V4.42285H43.124V12.5662Z" fill="#F7F7F7"/>
<path d="M48.9382 2.897H46.8139V12.5659H44.72V2.897H42.5957V1.42334H48.9382V2.897Z" fill="#F7F7F7"/>
<path d="M54.0986 12.5662H52.4242L52.2386 11.5695H52.1922C51.737 12.3216 51.0551 12.6976 50.1446 12.6976C49.5145 12.6976 49.0486 12.5203 48.7487 12.1672C48.4488 11.8125 48.2988 11.2592 48.2988 10.5071V4.42438H50.4392V10.4C50.4392 10.7639 50.4856 11.0222 50.5784 11.1766C50.6712 11.331 50.8265 11.4089 51.0444 11.4089C51.23 11.4089 51.4085 11.3601 51.5799 11.2622C51.7513 11.1643 51.8762 11.0405 51.9601 10.8908V4.42285H54.0986V12.5662Z" fill="#F7F7F7"/>
<path d="M61.1833 5.72522C61.053 5.21158 60.8441 4.84011 60.555 4.60927C60.2658 4.37845 59.8677 4.26379 59.3607 4.26379C58.968 4.26379 58.6002 4.35857 58.2593 4.54965C57.9183 4.74074 57.6541 4.98992 57.4685 5.30024H57.4525V1.01074H55.3906V12.5646H57.1579L57.3756 11.7941H57.4221C57.5881 12.0693 57.8362 12.2848 58.1665 12.4454C58.4967 12.6043 58.8645 12.6838 59.2679 12.6838C59.9909 12.6838 60.5246 12.398 60.8656 11.8277C61.2065 11.256 61.3778 10.3648 61.3778 9.15103V7.86234C61.3778 6.95275 61.3118 6.23886 61.1833 5.72522ZM59.2214 9.04703C59.2214 9.64016 59.1929 10.1049 59.1357 10.4412C59.0787 10.7775 58.984 11.0176 58.8484 11.1582C58.7145 11.3003 58.5324 11.3706 58.3057 11.3706C58.129 11.3706 57.9665 11.3355 57.8166 11.2637C57.6666 11.1933 57.5453 11.0863 57.4525 10.9457V6.32446C57.5238 6.1028 57.6488 5.92242 57.8255 5.78025C58.0005 5.63808 58.1933 5.56776 58.3985 5.56776C58.6163 5.56776 58.7841 5.64114 58.902 5.78637C59.0215 5.93312 59.1036 6.17771 59.1501 6.52319C59.1965 6.86867 59.2197 7.35938 59.2197 7.99683V9.04703H59.2214Z" fill="#F7F7F7"/>
<path d="M64.4146 9.5163C64.4146 10.0391 64.4325 10.4305 64.4682 10.6919C64.5039 10.9532 64.5789 11.1429 64.6931 11.2636C64.8073 11.3828 64.9823 11.4424 65.2197 11.4424C65.5393 11.4424 65.7606 11.3354 65.8784 11.123C65.998 10.9105 66.0623 10.5558 66.073 10.0605L67.9188 10.1538C67.9295 10.2241 67.9348 10.3219 67.9348 10.4457C67.9348 11.1978 67.6939 11.7604 67.2137 12.1319C66.7335 12.5034 66.0534 12.6899 65.1751 12.6899C64.1201 12.6899 63.3811 12.407 62.958 11.8399C62.5331 11.2728 62.3225 10.3969 62.3225 9.21054V7.78886C62.3225 6.56746 62.5421 5.67471 62.9812 5.11215C63.4204 4.54959 64.1719 4.26831 65.2376 4.26831C65.9712 4.26831 66.5353 4.38296 66.9281 4.6138C67.3208 4.84463 67.5975 5.20234 67.7581 5.68999C67.9188 6.17764 67.9991 6.85027 67.9991 7.70937V9.10355H64.4146V9.5163ZM64.686 5.6793C64.5771 5.79394 64.5057 5.98197 64.4682 6.24338C64.4325 6.50479 64.4146 6.90071 64.4146 7.43273V8.01668H65.9802V7.43273C65.9802 6.90989 65.9588 6.51396 65.9177 6.24338C65.8767 5.9728 65.8017 5.78324 65.6927 5.67165C65.5839 5.56159 65.4161 5.50502 65.1894 5.50502C64.9609 5.50655 64.7931 5.56464 64.686 5.6793Z" fill="#F7F7F7"/>
</g>
<defs>
<clipPath id="clip0_10_1588">
<rect width="68" height="13" fill="white" transform="translate(0 0.5)"/>
</clipPath>
</defs>
</svg>
